<svg width="19" height="14" viewBox="0 0 19 14" fill="none" xmlns="http://www.w3.org/2000/svg">
<path d="M0.465781 7.13284C0.465761 7.68514 0.913482 8.13288 1.46578 8.13288H2.52828C3.08055 8.13288 3.52826 7.68518 3.52828 7.13292L3.52829 6.96305C3.52831 6.41075 3.08058 5.96301 2.52829 5.96301H1.46579C0.913516 5.96301 0.465808 6.41071 0.465787 6.96298L0.465781 7.13284ZM0.465824 12.1301C0.465824 12.6824 0.913539 13.1301 1.46582 13.1301H2.52832C3.08061 13.1301 3.52832 12.6824 3.52832 12.1301V11.8507C3.52832 11.2984 3.08061 10.8507 2.52832 10.8507H1.46582C0.913539 10.8507 0.465824 11.2984 0.465824 11.8507V12.1301ZM0.465824 2.06987C0.465824 2.62215 0.91354 3.06987 1.46582 3.06987H2.52832C3.08061 3.06987 3.52832 2.62215 3.52832 2.06987V1.98767C3.52832 1.43539 3.08061 0.987671 2.52832 0.987671H1.46582C0.913539 0.987671 0.465824 1.43539 0.465824 1.98767V2.06987ZM5.05855 7.13284C5.05853 7.68514 5.50626 8.13288 6.05855 8.13288H17.0586C17.6108 8.13288 18.0585 7.68518 18.0586 7.13291L18.0586 6.96305C18.0586 6.41075 17.6109 5.96301 17.0586 5.96301H6.05856C5.50629 5.96301 5.05858 6.41071 5.05856 6.96298L5.05855 7.13284ZM5.0586 12.1301C5.0586 12.6824 5.50631 13.1301 6.0586 13.1301H17.0586C17.6109 13.1301 18.0586 12.6824 18.0586 12.1301L18.0586 11.8507C18.0586 11.2984 17.6109 10.8507 17.0586 10.8507H6.0586C5.50631 10.8507 5.0586 11.2984 5.0586 11.8507V12.1301ZM6.0586 0.987671C5.50631 0.987671 5.0586 1.43539 5.0586 1.98767L5.0586 2.06987C5.0586 2.62215 5.50631 3.06987 6.0586 3.06987H17.0586C17.6109 3.06987 18.0586 2.62216 18.0586 2.06987L18.0586 1.98767C18.0586 1.43539 17.6109 0.987671 17.0586 0.987671H6.0586Z" fill="white"/>
</svg>
